<svg xmlns="http://www.w3.org/2000/svg" viewBox="0 0 320 200">
  <rect width="320" height="200" fill="#efe6d2"/>
  <rect x="40" y="20" width="240" height="160" rx="10" fill="#221f17"/>
  <!-- brick rows -->
  <g>
    <rect x="52" y="34" width="50" height="16" rx="3" fill="#9b3a22"/>
    <rect x="108" y="34" width="50" height="16" rx="3" fill="#9b3a22"/>
    <rect x="164" y="34" width="50" height="16" rx="3" fill="#9b3a22"/>
    <rect x="220" y="34" width="48" height="16" rx="3" fill="#9b3a22"/>
    <rect x="52" y="56" width="50" height="16" rx="3" fill="#c8923a"/>
    <rect x="108" y="56" width="50" height="16" rx="3" fill="#c8923a"/>
    <rect x="164" y="56" width="50" height="16" rx="3" fill="#c8923a"/>
    <rect x="220" y="56" width="48" height="16" rx="3" fill="#c8923a"/>
    <rect x="52" y="78" width="50" height="16" rx="3" fill="#6f6a3b"/>
    <rect x="108" y="78" width="50" height="16" rx="3" fill="#6f6a3b"/>
    <rect x="164" y="78" width="50" height="16" rx="3" fill="#6f6a3b"/>
    <rect x="220" y="78" width="48" height="16" rx="3" fill="#6f6a3b"/>
  </g>
  <!-- ball -->
  <circle cx="170" cy="126" r="9" fill="#9b3a22"/>
  <!-- paddle -->
  <rect x="128" y="156" width="64" height="13" rx="6" fill="#c8923a"/>
</svg>
