<svg xmlns="http://www.w3.org/2000/svg" viewBox="0 0 320 200">
  <rect width="320" height="200" fill="#efe6d2"/>
  <!-- formation of alien invaders -->
  <!-- top row: boss-type (oxblood) -->
  <g fill="#9b3a22">
    <path d="M96 44 h20 v10 h-6 v6 h-8 v-6 h-6 z"/>
    <path d="M150 44 h20 v10 h-6 v6 h-8 v-6 h-6 z"/>
    <path d="M204 44 h20 v10 h-6 v6 h-8 v-6 h-6 z"/>
  </g>
  <!-- middle row: escorts (olive) -->
  <g fill="#6f6a3b">
    <path d="M82 74 h16 v8 h-5 v5 h-6 v-5 h-5 z"/>
    <path d="M128 74 h16 v8 h-5 v5 h-6 v-5 h-5 z"/>
    <path d="M174 74 h16 v8 h-5 v5 h-6 v-5 h-5 z"/>
    <path d="M220 74 h16 v8 h-5 v5 h-6 v-5 h-5 z"/>
  </g>
  <!-- bottom row: grunts (ochre) -->
  <g fill="#c8923a">
    <path d="M74 100 h14 v7 h-4 v4 h-6 v-4 h-4 z"/>
    <path d="M114 100 h14 v7 h-4 v4 h-6 v-4 h-4 z"/>
    <path d="M154 100 h14 v7 h-4 v4 h-6 v-4 h-4 z"/>
    <path d="M194 100 h14 v7 h-4 v4 h-6 v-4 h-4 z"/>
    <path d="M234 100 h14 v7 h-4 v4 h-6 v-4 h-4 z"/>
  </g>
  <!-- player shot rising -->
  <rect x="158" y="138" width="4" height="20" fill="#221f17"/>
  <!-- player fighter (white-ish arrow with red wings) -->
  <path d="M160 158 l-8 18 h16 z" fill="#221f17"/>
  <path d="M138 176 l14 -8 v8 z" fill="#9b3a22"/>
  <path d="M182 176 l-14 -8 v8 z" fill="#9b3a22"/>
  <rect x="152" y="166" width="16" height="10" fill="#f3ece0"/>
  <rect x="158" y="150" width="4" height="8" fill="#221f17"/>
</svg>
